PathFileType	4	(X/Y/Z)	C:/Users/opensim2020/Desktop/walking_exp_matlab/subject03_walking06_straight_04.trc	
DataRate	CameraRate	NumFrames	NumMarkers	Units	OrigDataRate	OrigDataStartFrame	OrigNumFrames	
100.00	100.00	4	44	mm	100.00	2937	278	
Frame#	Time	LFHD			RFHD			LBHD			RBHD			C7			T10			CLAV			STRN			RBAK			LSHO			LUPA			LELB			LFRM			LWRA			LWRB			LFIN			RSHO			RUPA			RELB			RFRM			RWRA			RWRB			RFIN			LASI			RASI			LPSI			RPSI			LTHI			LKNE			LTIB			LANK			LHEE			LTOE			RTHI			RKNE			RTIB			RANK			RHEE			RTOE			*39			*40			*41			*42			*43			
		X1	Y1	Z1	X2	Y2	Z2	X3	Y3	Z3	X4	Y4	Z4	X5	Y5	Z5	X6	Y6	Z6	X7	Y7	Z7	X8	Y8	Z8	X9	Y9	Z9	X10	Y10	Z10	X11	Y11	Z11	X12	Y12	Z12	X13	Y13	Z13	X14	Y14	Z14	X15	Y15	Z15	X16	Y16	Z16	X17	Y17	Z17	X18	Y18	Z18	X19	Y19	Z19	X20	Y20	Z20	X21	Y21	Z21	X22	Y22	Z22	X23	Y23	Z23	X24	Y24	Z24	X25	Y25	Z25	X26	Y26	Z26	X27	Y27	Z27	X28	Y28	Z28	X29	Y29	Z29	X30	Y30	Z30	X31	Y31	Z31	X32	Y32	Z32	X33	Y33	Z33	X34	Y34	Z34	X35	Y35	Z35	X36	Y36	Z36	X37	Y37	Z37	X38	Y38	Z38	X39	Y39	Z39	X40	Y40	Z40	X41	Y41	Z41	X42	Y42	Z42	X43	Y43	Z43	X44	Y44	Z44	

209	2.080	-961.00513	-612.29004	1609.96436	-1093.31750	-602.09094	1616.88770	-956.89240	-483.15677	1569.81824	-1087.43213	-477.96005	1576.30469	-1012.38098	-443.38449	1411.23010	-1007.10297	-412.75757	1096.03870	-1022.99908	-563.79974	1334.10144	-1017.19067	-609.65808	1170.84741	-1098.73315	-382.39413	1231.68811	-865.32550	-534.42340	1373.78845	-787.79535	-566.38141	1184.03467	-775.16760	-602.99042	1066.78552	-784.38831	-664.62506	952.79669	-821.67322	-711.17505	845.85199	-767.35626	-699.06726	845.11493	-781.38202	-740.46729	773.67090	-1178.88745	-503.35736	1354.54712	-1247.23193	-492.10663	1130.33533	-1261.51953	-503.77911	1018.38617	-1264.75757	-518.97449	882.33362	-1233.93530	-554.15131	787.26697	-1272.39551	-516.24072	781.59357	-1264.55200	-539.66510	710.39374	-896.71216	-584.74664	936.39154	-1134.83752	-575.08771	936.77393	-942.22528	-421.79889	957.08087	-1090.45313	-415.90540	957.80652	-868.99884	-516.59631	633.49017	-912.06610	-501.10526	457.39212	-912.39764	-427.97989	273.35287	-957.52338	-380.86472	68.71295	-992.03601	-335.47849	36.26517	-981.80298	-529.47980	30.45207	-1186.77979	-599.85028	648.25732	-1157.91455	-677.53217	485.54318	-1157.80859	-635.74768	297.04556	-1110.64392	-610.12823	82.21256	-1053.98071	-569.06757	51.97198	-1105.20349	-744.51898	40.02351	-1006.72144	-528.41669	1674.80444												 
210	2.090	-961.53442	-620.67291	1608.93335	-1093.80432	-610.57172	1615.69275	-957.46790	-491.66968	1568.48230	-1088.09631	-486.58051	1574.90735	-1012.89496	-452.30115	1410.07556	-1007.81885	-421.17609	1094.88782	-1023.26782	-572.56219	1332.80701	-1017.07050	-618.22906	1169.39563	-1099.01099	-391.11533	1230.39063	-865.71008	-543.04071	1372.70313	-787.88855	-576.32227	1183.52527	-775.27771	-614.35742	1066.78979	-785.02228	-678.17480	954.12195	-823.07776	-727.11810	848.57367	-768.84363	-714.78394	846.96875	-783.51367	-757.74481	776.61237	-1179.26831	-512.24146	1352.98132	-1247.60376	-499.11371	1128.77234	-1261.80408	-509.67392	1016.72394	-1265.10803	-522.80719	880.43103	-1234.32886	-556.43518	784.77515	-1272.97913	-518.43567	779.92480	-1265.07410	-540.64893	708.13855	-896.60760	-592.75421	935.25458	-1134.70642	-584.07886	935.18372	-942.62189	-430.10892	955.86853	-1090.97864	-424.72720	956.38074	-868.98773	-522.36316	632.71490	-911.92413	-504.81512	456.65073	-912.34259	-430.14246	273.23090	-957.53772	-380.98056	69.01504	-992.06763	-335.47437	36.73342	-981.77478	-529.54834	30.44674	-1186.61072	-608.06970	646.52942	-1156.87280	-685.98987	483.95715	-1157.02820	-652.93701	294.31833	-1110.38904	-639.41058	78.34290	-1052.75549	-600.47363	46.45754	-1104.75330	-776.44568	41.78036	-1006.18011	-537.05756	1673.14941												 
211	2.100	-962.08521	-629.13873	1607.89160	-1094.41528	-619.12701	1614.47888	-958.38379	-500.02264	1567.20093	-1088.73206	-495.17828	1573.36121	-1013.49854	-461.18829	1408.82935	-1008.54572	-429.65826	1093.66895	-1023.56915	-581.38959	1331.46301	-1016.98993	-626.87018	1168.02844	-1099.40723	-399.88736	1229.12622	-866.17633	-551.74023	1371.56543	-788.01361	-586.24542	1183.01050	-775.41919	-625.65234	1066.77087	-785.80066	-691.50354	955.38574	-824.54712	-742.59833	851.25745	-770.44873	-730.13977	848.77319	-785.73456	-774.71252	779.57959	-1179.74390	-521.22351	1351.42981	-1247.80139	-506.40521	1127.36316	-1262.05273	-515.76654	1015.09497	-1265.44543	-526.83850	878.57813	-1234.78711	-558.97217	782.38208	-1273.56262	-521.00250	778.18872	-1265.57764	-541.91724	705.98224	-896.48572	-600.84851	933.98413	-1134.60254	-593.20691	933.49146	-943.12494	-438.37927	954.61694	-1091.50903	-433.60733	954.84857	-868.92804	-528.17926	631.93359	-911.80060	-508.81747	455.79459	-912.35815	-432.42990	273.16852	-957.63904	-381.01776	69.59898	-992.55988	-335.68787	37.31300	-981.68262	-529.55951	30.37117	-1186.53418	-615.64355	644.35663	-1155.80530	-694.02222	482.17075	-1156.26013	-669.46503	291.94507	-1110.11694	-668.40491	75.22404	-1052.23059	-631.80914	41.75232	-1104.58960	-807.33942	44.00980	-1006.46991	-545.60773	1671.52869												 
212	2.110	-962.68347	-637.59033	1606.80774	-1094.98376	-627.61969	1613.28296	-958.77472	-508.75919	1565.72168	-1089.42346	-503.90784	1571.86572	-1013.73517	-470.20966	1407.38452	-1009.37463	-438.26947	1092.48132	-1023.93896	-590.24182	1330.12305	-1016.97699	-635.46472	1166.59119	-1099.86157	-408.81839	1227.84277	-866.65308	-560.42908	1370.42822	-788.28619	-595.91724	1182.37170	-775.68066	-636.79071	1066.64600	-786.67023	-704.49670	956.57959	-826.20416	-757.60425	853.83740	-772.16382	-745.11230	850.54492	-788.07129	-791.17426	782.52057	-1180.17065	-530.24042	1349.92432	-1247.99658	-513.78516	1125.88818	-1262.30847	-522.07831	1013.50043	-1265.75598	-531.10144	876.79669	-1235.35315	-561.78973	780.09814	-1274.14014	-523.69122	776.48492	-1266.19617	-543.33679	703.92908	-896.54230	-609.00989	932.81055	-1134.57935	-602.43018	931.74982	-943.77502	-446.54025	953.37189	-1092.16797	-442.60428	953.26624	-868.86090	-534.11365	631.22583	-911.60437	-513.20935	455.28915	-912.37164	-434.72003	273.18689	-957.72900	-381.44104	69.98479	-992.79749	-335.72589	38.14735	-981.71344	-529.54956	30.32010	-1186.12415	-622.57751	642.04865	-1154.59790	-701.64044	480.16776	-1155.45398	-685.30432	289.80478	-1109.58679	-696.44281	72.95612	-1051.52197	-661.79370	38.63745	-1104.57556	-837.17303	46.67238	-1007.97552	-553.36755	1670.74646												 
